<svg xmlns="http://www.w3.org/2000/svg" viewBox="0 0 80 80" width="80" height="80">
  <defs>
    <linearGradient id="bg2" x1="0%" y1="0%" x2="100%" y2="100%">
      <stop offset="0%" style="stop-color:#1a0a0a"/>
      <stop offset="100%" style="stop-color:#0a0505"/>
    </linearGradient>
  </defs>
  <!-- Background -->
  <rect width="80" height="80" fill="url(#bg2)"/>
  <!-- Face shape - slight shift -->
  <ellipse cx="40" cy="37" rx="22" ry="26" fill="#d4a574" opacity="0.9"/>
  <!-- Hair - animated wave -->
  <path d="M18 27 Q26 7 40 11 Q54 7 62 27 Q57 17 40 19 Q23 17 18 27" fill="#daa520" opacity="0.95"/>
  <path d="M21 29 Q29 14 40 17 Q51 14 59 29" fill="#f4c430" opacity="0.8"/>
  <!-- Eyes - slightly wider -->
  <ellipse cx="32" cy="35" rx="4.2" ry="2.8" fill="#1a1a2e"/>
  <ellipse cx="48" cy="35" rx="4.2" ry="2.8" fill="#1a1a2e"/>
  <circle cx="32" cy="35" r="1.3" fill="#4a90d9"/>
  <circle cx="48" cy="35" r="1.3" fill="#4a90d9"/>
  <!-- Eyebrows - raised -->
  <path d="M26 30 Q32 28 38 31" stroke="#b8860b" stroke-width="1.5" fill="none"/>
  <path d="M42 31 Q48 28 54 30" stroke="#b8860b" stroke-width="1.5" fill="none"/>
  <!-- Nose -->
  <path d="M40 37 L40 45 Q38 47 40 47 Q42 47 40 45" stroke="#c49a6c" stroke-width="1" fill="none"/>
  <!-- Mouth - talking frame -->
  <ellipse cx="40" cy="55" rx="6" ry="3" fill="#2a1a1a"/>
  <path d="M34 55 Q40 52 46 55" stroke="#d4a574" stroke-width="0.5" fill="none"/>
  <!-- Chin -->
  <ellipse cx="40" cy="59" rx="8" ry="4" fill="#d4a574" opacity="0.7"/>
  <!-- Suit collar -->
  <path d="M20 72 L30 65 L40 70 L50 65 L60 72 L60 80 L20 80 Z" fill="#1a1a2e"/>
  <!-- Tie -->
  <path d="M37 65 L40 80 L43 65 Z" fill="#c41e3a"/>
  <!-- Red glow overlay -->
  <rect width="80" height="80" fill="#c41e3a" opacity="0.1"/>
</svg>